<?xml version="1.0" standalone="no"?>
<!DOCTYPE svg PUBLIC "-//W3C//DTD SVG 1.1//EN"
   "http://www.w3.org/Graphics/SVG/1.1/DTD/svg11.dtd">
<svg width="132" height="132" version="1.1"
   xmlns="http://www.w3.org/2000/svg">
   <desc>Zint Generated Symbol
   </desc>

   <g id="barcode" fill="#000000">
      <rect x="0" y="0" width="132" height="132" fill="#FFFFFF" />
      <rect x="16.00" y="16.00" width="28.00" height="4.00" />
      <rect x="48.00" y="16.00" width="8.00" height="4.00" />
      <rect x="68.00" y="16.00" width="4.00" height="4.00" />
      <rect x="88.00" y="16.00" width="28.00" height="4.00" />
      <rect x="16.00" y="20.00" width="4.00" height="4.00" />
      <rect x="40.00" y="20.00" width="4.00" height="4.00" />
      <rect x="68.00" y="20.00" width="4.00" height="4.00" />
      <rect x="80.00" y="20.00" width="4.00" height="4.00" />
      <rect x="88.00" y="20.00" width="4.00" height="4.00" />
      <rect x="112.00" y="20.00" width="4.00" height="4.00" />
      <rect x="16.00" y="24.00" width="4.00" height="4.00" />
      <rect x="24.00" y="24.00" width="12.00" height="4.00" />
      <rect x="40.00" y="24.00" width="4.00" height="4.00" />
      <rect x="48.00" y="24.00" width="4.00" height="4.00" />
      <rect x="60.00" y="24.00" width="16.00" height="4.00" />
      <rect x="88.00" y="24.00" width="4.00" height="4.00" />
      <rect x="96.00" y="24.00" width="12.00" height="4.00" />
      <rect x="112.00" y="24.00" width="4.00" height="4.00" />
      <rect x="16.00" y="28.00" width="4.00" height="4.00" />
      <rect x="24.00" y="28.00" width="12.00" height="4.00" />
      <rect x="40.00" y="28.00" width="4.00" height="4.00" />
      <rect x="48.00" y="28.00" width="8.00" height="4.00" />
      <rect x="60.00" y="28.00" width="4.00" height="4.00" />
      <rect x="68.00" y="28.00" width="4.00" height="4.00" />
      <rect x="88.00" y="28.00" width="4.00" height="4.00" />
      <rect x="96.00" y="28.00" width="12.00" height="4.00" />
      <rect x="112.00" y="28.00" width="4.00" height="4.00" />
      <rect x="16.00" y="32.00" width="4.00" height="4.00" />
      <rect x="24.00" y="32.00" width="12.00" height="4.00" />
      <rect x="40.00" y="32.00" width="4.00" height="4.00" />
      <rect x="48.00" y="32.00" width="16.00" height="4.00" />
      <rect x="76.00" y="32.00" width="8.00" height="4.00" />
      <rect x="88.00" y="32.00" width="4.00" height="4.00" />
      <rect x="96.00" y="32.00" width="12.00" height="4.00" />
      <rect x="112.00" y="32.00" width="4.00" height="4.00" />
      <rect x="16.00" y="36.00" width="4.00" height="4.00" />
      <rect x="40.00" y="36.00" width="4.00" height="4.00" />
      <rect x="52.00" y="36.00" width="4.00" height="4.00" />
      <rect x="64.00" y="36.00" width="4.00" height="4.00" />
      <rect x="88.00" y="36.00" width="4.00" height="4.00" />
      <rect x="112.00" y="36.00" width="4.00" height="4.00" />
      <rect x="16.00" y="40.00" width="28.00" height="4.00" />
      <rect x="48.00" y="40.00" width="4.00" height="4.00" />
      <rect x="56.00" y="40.00" width="4.00" height="4.00" />
      <rect x="64.00" y="40.00" width="4.00" height="4.00" />
      <rect x="72.00" y="40.00" width="4.00" height="4.00" />
      <rect x="80.00" y="40.00" width="4.00" height="4.00" />
      <rect x="88.00" y="40.00" width="28.00" height="4.00" />
      <rect x="52.00" y="44.00" width="4.00" height="4.00" />
      <rect x="60.00" y="44.00" width="4.00" height="4.00" />
      <rect x="72.00" y="44.00" width="12.00" height="4.00" />
      <rect x="16.00" y="48.00" width="16.00" height="4.00" />
      <rect x="40.00" y="48.00" width="4.00" height="4.00" />
      <rect x="48.00" y="48.00" width="4.00" height="4.00" />
      <rect x="72.00" y="48.00" width="16.00" height="4.00" />
      <rect x="96.00" y="48.00" width="12.00" height="4.00" />
      <rect x="112.00" y="48.00" width="4.00" height="4.00" />
      <rect x="16.00" y="52.00" width="8.00" height="4.00" />
      <rect x="52.00" y="52.00" width="4.00" height="4.00" />
      <rect x="68.00" y="52.00" width="4.00" height="4.00" />
      <rect x="80.00" y="52.00" width="4.00" height="4.00" />
      <rect x="92.00" y="52.00" width="4.00" height="4.00" />
      <rect x="108.00" y="52.00" width="4.00" height="4.00" />
      <rect x="20.00" y="56.00" width="4.00" height="4.00" />
      <rect x="28.00" y="56.00" width="4.00" height="4.00" />
      <rect x="40.00" y="56.00" width="12.00" height="4.00" />
      <rect x="68.00" y="56.00" width="4.00" height="4.00" />
      <rect x="80.00" y="56.00" width="4.00" height="4.00" />
      <rect x="88.00" y="56.00" width="12.00" height="4.00" />
      <rect x="16.00" y="60.00" width="16.00" height="4.00" />
      <rect x="36.00" y="60.00" width="4.00" height="4.00" />
      <rect x="48.00" y="60.00" width="4.00" height="4.00" />
      <rect x="60.00" y="60.00" width="12.00" height="4.00" />
      <rect x="76.00" y="60.00" width="8.00" height="4.00" />
      <rect x="100.00" y="60.00" width="8.00" height="4.00" />
      <rect x="16.00" y="64.00" width="4.00" height="4.00" />
      <rect x="28.00" y="64.00" width="8.00" height="4.00" />
      <rect x="40.00" y="64.00" width="4.00" height="4.00" />
      <rect x="52.00" y="64.00" width="4.00" height="4.00" />
      <rect x="60.00" y="64.00" width="20.00" height="4.00" />
      <rect x="84.00" y="64.00" width="8.00" height="4.00" />
      <rect x="96.00" y="64.00" width="4.00" height="4.00" />
      <rect x="104.00" y="64.00" width="12.00" height="4.00" />
      <rect x="24.00" y="68.00" width="8.00" height="4.00" />
      <rect x="48.00" y="68.00" width="16.00" height="4.00" />
      <rect x="72.00" y="68.00" width="28.00" height="4.00" />
      <rect x="112.00" y="68.00" width="4.00" height="4.00" />
      <rect x="20.00" y="72.00" width="12.00" height="4.00" />
      <rect x="36.00" y="72.00" width="20.00" height="4.00" />
      <rect x="80.00" y="72.00" width="4.00" height="4.00" />
      <rect x="88.00" y="72.00" width="8.00" height="4.00" />
      <rect x="104.00" y="72.00" width="8.00" height="4.00" />
      <rect x="16.00" y="76.00" width="4.00" height="4.00" />
      <rect x="24.00" y="76.00" width="8.00" height="4.00" />
      <rect x="36.00" y="76.00" width="4.00" height="4.00" />
      <rect x="44.00" y="76.00" width="4.00" height="4.00" />
      <rect x="60.00" y="76.00" width="8.00" height="4.00" />
      <rect x="80.00" y="76.00" width="16.00" height="4.00" />
      <rect x="100.00" y="76.00" width="4.00" height="4.00" />
      <rect x="112.00" y="76.00" width="4.00" height="4.00" />
      <rect x="32.00" y="80.00" width="12.00" height="4.00" />
      <rect x="48.00" y="80.00" width="4.00" height="4.00" />
      <rect x="60.00" y="80.00" width="12.00" height="4.00" />
      <rect x="76.00" y="80.00" width="40.00" height="4.00" />
      <rect x="48.00" y="84.00" width="8.00" height="4.00" />
      <rect x="60.00" y="84.00" width="16.00" height="4.00" />
      <rect x="80.00" y="84.00" width="4.00" height="4.00" />
      <rect x="96.00" y="84.00" width="4.00" height="4.00" />
      <rect x="112.00" y="84.00" width="4.00" height="4.00" />
      <rect x="16.00" y="88.00" width="28.00" height="4.00" />
      <rect x="68.00" y="88.00" width="4.00" height="4.00" />
      <rect x="80.00" y="88.00" width="4.00" height="4.00" />
      <rect x="88.00" y="88.00" width="4.00" height="4.00" />
      <rect x="96.00" y="88.00" width="20.00" height="4.00" />
      <rect x="16.00" y="92.00" width="4.00" height="4.00" />
      <rect x="40.00" y="92.00" width="4.00" height="4.00" />
      <rect x="60.00" y="92.00" width="4.00" height="4.00" />
      <rect x="80.00" y="92.00" width="4.00" height="4.00" />
      <rect x="96.00" y="92.00" width="4.00" height="4.00" />
      <rect x="108.00" y="92.00" width="8.00" height="4.00" />
      <rect x="16.00" y="96.00" width="4.00" height="4.00" />
      <rect x="24.00" y="96.00" width="12.00" height="4.00" />
      <rect x="40.00" y="96.00" width="4.00" height="4.00" />
      <rect x="52.00" y="96.00" width="8.00" height="4.00" />
      <rect x="64.00" y="96.00" width="4.00" height="4.00" />
      <rect x="72.00" y="96.00" width="4.00" height="4.00" />
      <rect x="80.00" y="96.00" width="20.00" height="4.00" />
      <rect x="112.00" y="96.00" width="4.00" height="4.00" />
      <rect x="16.00" y="100.00" width="4.00" height="4.00" />
      <rect x="24.00" y="100.00" width="12.00" height="4.00" />
      <rect x="40.00" y="100.00" width="4.00" height="4.00" />
      <rect x="48.00" y="100.00" width="4.00" height="4.00" />
      <rect x="60.00" y="100.00" width="4.00" height="4.00" />
      <rect x="76.00" y="100.00" width="16.00" height="4.00" />
      <rect x="96.00" y="100.00" width="4.00" height="4.00" />
      <rect x="104.00" y="100.00" width="12.00" height="4.00" />
      <rect x="16.00" y="104.00" width="4.00" height="4.00" />
      <rect x="24.00" y="104.00" width="12.00" height="4.00" />
      <rect x="40.00" y="104.00" width="4.00" height="4.00" />
      <rect x="48.00" y="104.00" width="4.00" height="4.00" />
      <rect x="56.00" y="104.00" width="12.00" height="4.00" />
      <rect x="88.00" y="104.00" width="24.00" height="4.00" />
      <rect x="16.00" y="108.00" width="4.00" height="4.00" />
      <rect x="40.00" y="108.00" width="4.00" height="4.00" />
      <rect x="48.00" y="108.00" width="32.00" height="4.00" />
      <rect x="84.00" y="108.00" width="4.00" height="4.00" />
      <rect x="96.00" y="108.00" width="4.00" height="4.00" />
      <rect x="104.00" y="108.00" width="4.00" height="4.00" />
      <rect x="16.00" y="112.00" width="28.00" height="4.00" />
      <rect x="48.00" y="112.00" width="16.00" height="4.00" />
      <rect x="72.00" y="112.00" width="4.00" height="4.00" />
      <rect x="92.00" y="112.00" width="24.00" height="4.00" />
   </g>
</svg>
